# xmcd
#
# Track frame offsets: 
#        150
#        11228
#        21418
#        30575
#        39754
#        52981
#        63911
#        73736
#        83003
#        93203
#        104610
#        115103
#        125944
#        136338
#        146543
#        156529
#        165808
#        174418
#        186139
#        196902
#        209358
#        220595
#        232549
#        243567
#        256155
#        267328
#
# Disc length: 3741 seconds
#
# Revision: 0
# Processed by: cddbd v1.5.2PL0 Copyright (c) Steve Scherf et al.
# Submitted via: ExactAudioCopy v0.99pb4
#
DISCID=620e9b1a
DTITLE=Various Artist - A Little Taste Of Soul (From The Outta Sight 
DTITLE=Diner)
DYEAR=1963
DGENRE=Soul
TTITLE0=Teddy (Mr Bear) McRae - Hi' Fi' Baby
TTITLE1=Little Marie Allen - Humdinger
TTITLE2=Johnny Acey - Please Don't Go (Back To Baltimore)
TTITLE3=Barbara d'Orleans And The Marquees - Summertime
TTITLE4=Bellino - Boss Bossa Nova
TTITLE5=The New Yorkers - Miss Fine
TTITLE6=The Dreamers - Because Of You
TTITLE7=Joey Dee and The Starlighters - What Kind Of Love Is This
TTITLE8=Lou Johnson - If I Never Get To Love You
TTITLE9=Paul Walters And The 521 Club Band - I Know What Love Is All A
TTITLE9=bout
TTITLE10=The Mystics - Darling I Know Now
TTITLE11=Pinnochio James - Mama Don't Love Me No More
TTITLE12=Jay Dee Bryant - Come Summer
TTITLE13=The Coasters - Besame Mucho
TTITLE14=Paul Anka - Ogni Giorno (Love Me Warm And Tender)
TTITLE15=Jimmy Breedlove - I Say Hello
TTITLE16=Frankie Valle and The Romans - Real (This Is Real)
TTITLE17=Marino Marini And His Quartet - Ciao Ciao Bambina (Piove)
TTITLE18=The Dynamics - Forever Love
TTITLE19=Little Tommy And The Elgins - I Walk On
TTITLE20=Big Jay McNeeley - Oh, What A Fool
TTITLE21=Dee Dee Sharp - The Night
TTITLE22=The Top Notes - I Love You So Much
TTITLE23=The Embers - Solitaire
TTITLE24=The Shells - Baby Oh Baby
TTITLE25=Mina - Il Cielo In Una Stanza (This World We Live In)
EXTD=
EXTT0=
EXTT1=
EXTT2=
EXTT3=
EXTT4=
EXTT5=
EXTT6=
EXTT7=
EXTT8=
EXTT9=
EXTT10=
EXTT11=
EXTT12=
EXTT13=
EXTT14=
EXTT15=
EXTT16=
EXTT17=
EXTT18=
EXTT19=
EXTT20=
EXTT21=
EXTT22=
EXTT23=
EXTT24=
EXTT25=
PLAYORDER=
